G75*
G70*
%OFA0B0*%
%FSLAX24Y24*%
%IPPOS*%
%LPD*%
%AMOC8*
5,1,8,0,0,1.08239X$1,22.5*
%
%ADD10C,0.1182*%
%ADD11R,0.1891X0.0474*%
%ADD12R,0.1419X0.0710*%
%ADD13R,0.0789X0.0710*%
%ADD14C,0.0820*%
%ADD15R,0.0820X0.0820*%
%ADD16OC8,0.0820*%
%ADD17R,0.0552X0.0946*%
%ADD18R,0.0552X0.0867*%
%ADD19C,0.0680*%
%ADD20C,0.0516*%
%ADD21C,0.0867*%
%ADD22C,0.0552*%
%ADD23R,0.1143X0.1084*%
%ADD24R,0.1025X0.0178*%
%ADD25C,0.1340*%
%ADD26C,0.0434*%
%ADD27C,0.0390*%
%ADD28OC8,0.0611*%
D10*
X003877Y001100D03*
X017127Y002600D03*
X028627Y002600D03*
X029377Y001100D03*
X054877Y001100D03*
X028627Y022600D03*
X029377Y025100D03*
X017127Y022600D03*
X003877Y025100D03*
X054877Y025100D03*
D11*
X021370Y004444D03*
X021370Y003656D03*
D12*
X023417Y002711D03*
X023417Y005389D03*
D13*
X017077Y005051D03*
X017077Y003949D03*
X012377Y014449D03*
X012377Y015551D03*
D14*
X010877Y024600D03*
X009877Y024600D03*
X008877Y024600D03*
X007877Y024600D03*
X006877Y024600D03*
X005877Y024600D03*
D15*
X014127Y023350D03*
D16*
X015127Y023350D03*
X015127Y022350D03*
X014127Y022350D03*
X014127Y021350D03*
X015127Y021350D03*
D17*
X009309Y002524D03*
X008344Y002508D03*
X007320Y002524D03*
D18*
X007387Y012473D03*
X008317Y012473D03*
X009277Y012465D03*
D19*
X013977Y005100D02*
X013977Y004500D01*
X014977Y004500D02*
X014977Y005100D01*
X014927Y003250D02*
X014927Y002650D01*
X013927Y002650D02*
X013927Y003250D01*
X018377Y022300D02*
X018377Y022900D01*
X019377Y022900D02*
X019377Y022300D01*
X020377Y022300D02*
X020377Y022900D01*
X021377Y022900D02*
X021377Y022300D01*
X022377Y022300D02*
X022377Y022900D01*
X023377Y022900D02*
X023377Y022300D01*
X024377Y022300D02*
X024377Y022900D01*
X025377Y022900D02*
X025377Y022300D01*
X026377Y022300D02*
X026377Y022900D01*
X027377Y022900D02*
X027377Y022300D01*
D20*
X054270Y013474D03*
X054270Y012726D03*
D21*
X028625Y022600D03*
X017129Y022600D03*
X017129Y002600D03*
X028625Y002600D03*
D22*
X012663Y009314D03*
X012663Y009314D03*
X005091Y009314D03*
X005091Y016886D03*
D23*
X010927Y017250D03*
X010927Y014750D03*
X019277Y004700D03*
X019277Y002200D03*
D24*
X015932Y010246D03*
X015932Y010443D03*
X015932Y010639D03*
X015932Y010836D03*
X015932Y011033D03*
X015932Y011230D03*
X015932Y011427D03*
X015932Y011624D03*
X015932Y011820D03*
X015932Y012017D03*
X015932Y012214D03*
X015932Y012411D03*
X015932Y012608D03*
X015932Y012805D03*
X015932Y013002D03*
X015932Y013198D03*
X015932Y013395D03*
X015932Y013592D03*
X015932Y013789D03*
X015932Y013986D03*
X015932Y014183D03*
X015932Y014380D03*
X015932Y014576D03*
X015932Y014773D03*
X015932Y014970D03*
X015932Y015167D03*
X015932Y015364D03*
X015932Y015561D03*
X015932Y015757D03*
X015932Y015954D03*
X013822Y015954D03*
X013822Y015757D03*
X013822Y015561D03*
X013822Y015364D03*
X013822Y015167D03*
X013822Y014970D03*
X013822Y014773D03*
X013822Y014576D03*
X013822Y014380D03*
X013822Y014183D03*
X013822Y013986D03*
X013822Y013789D03*
X013822Y013592D03*
X013822Y013395D03*
X013822Y013198D03*
X013822Y013002D03*
X013822Y012805D03*
X013822Y012608D03*
X013822Y012411D03*
X013822Y012214D03*
X013822Y012017D03*
X013822Y011820D03*
X013822Y011624D03*
X013822Y011427D03*
X013822Y011230D03*
X013822Y011033D03*
X013822Y010836D03*
X013822Y010639D03*
X013822Y010443D03*
X013822Y010246D03*
D25*
X017948Y006328D03*
X026215Y006328D03*
X026215Y019950D03*
X017948Y019950D03*
D26*
X053627Y005966D03*
X053627Y004234D03*
D27*
X050157Y008540D03*
X051897Y012000D03*
X050317Y013040D03*
X051897Y014200D03*
X049917Y014990D03*
X047257Y012920D03*
X044717Y015400D03*
X050207Y017700D03*
X048337Y018660D03*
X043757Y020500D03*
X038757Y018140D03*
X033757Y017880D03*
X032757Y016180D03*
X037997Y012160D03*
X040607Y012210D03*
X021177Y018400D03*
X020757Y018980D03*
X020557Y020780D03*
X019817Y021040D03*
X018097Y021680D03*
X014977Y020620D03*
X014397Y020720D03*
X011537Y020880D03*
X010577Y020240D03*
X010157Y020580D03*
X009317Y021320D03*
X010437Y022260D03*
X011237Y022580D03*
X011457Y021600D03*
X008577Y023100D03*
X007797Y023580D03*
X006457Y023580D03*
X006957Y022160D03*
X007477Y022020D03*
X007517Y021600D03*
X005797Y021780D03*
X009897Y019500D03*
X009637Y018880D03*
X009257Y018880D03*
X010457Y018880D03*
X011417Y018140D03*
X011677Y017600D03*
X008997Y017940D03*
X012097Y019020D03*
X015857Y019020D03*
X010377Y016180D03*
X007157Y014760D03*
X007377Y013760D03*
X013117Y012940D03*
X016817Y012800D03*
X017147Y014190D03*
X015247Y006090D03*
X013077Y023920D03*
D28*
X012627Y013600D03*
X012777Y003400D03*
M02*
