G75*
G70*
%OFA0B0*%
%FSLAX24Y24*%
%IPPOS*%
%LPD*%
%AMOC8*
5,1,8,0,0,1.08239X$1,22.5*
%
%ADD10R,0.1811X0.0394*%
%ADD11R,0.1339X0.0630*%
%ADD12R,0.0709X0.0630*%
%ADD13C,0.0740*%
%ADD14R,0.0740X0.0740*%
%ADD15OC8,0.0740*%
%ADD16R,0.0472X0.0866*%
%ADD17R,0.0472X0.0787*%
%ADD18C,0.0600*%
%ADD19C,0.0436*%
%ADD20R,0.1063X0.1004*%
%ADD21R,0.0945X0.0098*%
%ADD22C,0.0200*%
%ADD23C,0.0120*%
%ADD24C,0.0310*%
%ADD25C,0.0100*%
%ADD26C,0.0080*%
%ADD27OC8,0.0531*%
D10*
X021370Y003656D03*
X021370Y004444D03*
D11*
X023417Y005389D03*
X023417Y002711D03*
D12*
X017077Y003949D03*
X017077Y005051D03*
X012377Y014449D03*
X012377Y015551D03*
D13*
X010877Y024600D03*
X009877Y024600D03*
X008877Y024600D03*
X007877Y024600D03*
X006877Y024600D03*
X005877Y024600D03*
D14*
X014127Y023350D03*
D15*
X015127Y023350D03*
X015127Y022350D03*
X014127Y022350D03*
X014127Y021350D03*
X015127Y021350D03*
D16*
X007320Y002524D03*
X008344Y002508D03*
X009309Y002524D03*
D17*
X009277Y012465D03*
X008317Y012473D03*
X007387Y012473D03*
D18*
X013977Y005100D02*
X013977Y004500D01*
X014977Y004500D02*
X014977Y005100D01*
X014927Y003250D02*
X014927Y002650D01*
X013927Y002650D02*
X013927Y003250D01*
X018377Y022300D02*
X018377Y022900D01*
X019377Y022900D02*
X019377Y022300D01*
X020377Y022300D02*
X020377Y022900D01*
X021377Y022900D02*
X021377Y022300D01*
X022377Y022300D02*
X022377Y022900D01*
X023377Y022900D02*
X023377Y022300D01*
X024377Y022300D02*
X024377Y022900D01*
X025377Y022900D02*
X025377Y022300D01*
X026377Y022300D02*
X026377Y022900D01*
X027377Y022900D02*
X027377Y022300D01*
D19*
X054270Y013474D03*
X054270Y012726D03*
D20*
X019277Y004700D03*
X019277Y002200D03*
X010927Y014750D03*
X010927Y017250D03*
D21*
X013822Y015954D03*
X013822Y015757D03*
X013822Y015561D03*
X013822Y015364D03*
X013822Y015167D03*
X013822Y014970D03*
X013822Y014773D03*
X013822Y014576D03*
X013822Y014380D03*
X013822Y014183D03*
X013822Y013986D03*
X013822Y013789D03*
X013822Y013592D03*
X013822Y013395D03*
X013822Y013198D03*
X013822Y013002D03*
X013822Y012805D03*
X013822Y012608D03*
X013822Y012411D03*
X013822Y012214D03*
X013822Y012017D03*
X013822Y011820D03*
X013822Y011624D03*
X013822Y011427D03*
X013822Y011230D03*
X013822Y011033D03*
X013822Y010836D03*
X013822Y010639D03*
X013822Y010443D03*
X013822Y010246D03*
X015932Y010246D03*
X015932Y010443D03*
X015932Y010639D03*
X015932Y010836D03*
X015932Y011033D03*
X015932Y011230D03*
X015932Y011427D03*
X015932Y011624D03*
X015932Y011820D03*
X015932Y012017D03*
X015932Y012214D03*
X015932Y012411D03*
X015932Y012608D03*
X015932Y012805D03*
X015932Y013002D03*
X015932Y013198D03*
X015932Y013395D03*
X015932Y013592D03*
X015932Y013789D03*
X015932Y013986D03*
X015932Y014183D03*
X015932Y014380D03*
X015932Y014576D03*
X015932Y014773D03*
X015932Y014970D03*
X015932Y015167D03*
X015932Y015364D03*
X015932Y015561D03*
X015932Y015757D03*
X015932Y015954D03*
D22*
X016037Y015840D01*
X016097Y015830D01*
X043937Y015830D01*
X044717Y015400D01*
X050157Y008540D02*
X045677Y004460D01*
X021377Y004460D01*
X021370Y004444D01*
X021297Y004520D01*
X019757Y004520D01*
X019577Y004700D01*
X019277Y004700D01*
X018926Y005051D01*
X017077Y005051D01*
X016997Y005000D01*
X016037Y004040D01*
X015017Y004040D01*
X014947Y003970D01*
X014877Y004040D01*
X014517Y004040D01*
X014517Y005300D01*
X014717Y005680D01*
X014717Y015140D01*
X014307Y015480D01*
X013867Y015480D01*
X013822Y015561D02*
X013817Y015660D01*
X013817Y015740D01*
X013822Y015561D02*
X013817Y015560D01*
X012377Y015560D01*
X012377Y015551D01*
X012317Y015640D01*
X010057Y015640D01*
X010057Y016380D01*
X010927Y017250D01*
X011017Y017300D01*
X011377Y017300D01*
X011677Y017600D01*
X010097Y020180D02*
X008677Y018760D01*
X008677Y014760D01*
X010837Y014760D01*
X010927Y014750D01*
X011157Y014520D01*
X012297Y014520D01*
X012377Y014449D01*
X012377Y014460D01*
X012477Y014560D01*
X013817Y014560D01*
X013822Y014576D01*
X013817Y014680D01*
X013817Y014760D01*
X013822Y014773D01*
X013817Y014880D01*
X013817Y014960D01*
X013822Y014970D01*
X008677Y014760D02*
X007157Y014760D01*
X007377Y013760D02*
X007377Y012480D01*
X007387Y012473D01*
X010097Y020180D02*
X010517Y020180D01*
X010577Y020240D01*
X010657Y020260D01*
X007497Y022020D02*
X007477Y022020D01*
X008577Y023100D02*
X008657Y023040D01*
X009117Y022580D01*
X011237Y022580D01*
X015127Y023350D02*
X015437Y023660D01*
X017557Y023660D01*
X017917Y023300D01*
X018377Y023300D01*
X018377Y022600D01*
X018457Y022540D01*
X019157Y021840D01*
X025617Y021840D01*
X026377Y022600D01*
X017077Y003949D02*
X017097Y003780D01*
X017697Y003780D01*
X019277Y002200D01*
X020733Y003656D01*
X021370Y003656D01*
X017097Y003780D02*
X016607Y003780D01*
X015777Y002950D01*
X014927Y002950D01*
X013927Y002950D02*
X014947Y003970D01*
D23*
X012777Y003400D02*
X012777Y003298D01*
X012003Y002524D01*
X010657Y020260D02*
X014617Y020260D01*
X014977Y020620D01*
X015127Y021350D02*
X015137Y021360D01*
X026137Y021360D01*
X027377Y022600D01*
X027317Y022400D01*
X029537Y020180D01*
X047277Y020180D01*
X050207Y017700D01*
X008577Y023100D02*
X007497Y022020D01*
D24*
X007477Y022020D03*
X006957Y022160D03*
X007517Y021600D03*
X005797Y021780D03*
X008577Y023100D03*
X007797Y023580D03*
X006457Y023580D03*
X010437Y022260D03*
X011237Y022580D03*
X011457Y021600D03*
X011537Y020880D03*
X010577Y020240D03*
X010157Y020580D03*
X009317Y021320D03*
X009897Y019500D03*
X009637Y018880D03*
X009257Y018880D03*
X010457Y018880D03*
X011417Y018140D03*
X011677Y017600D03*
X008997Y017940D03*
X012097Y019020D03*
X014977Y020620D03*
X014397Y020720D03*
X015857Y019020D03*
X019817Y021040D03*
X020557Y020780D03*
X018097Y021680D03*
X013077Y023920D03*
X020757Y018980D03*
X021177Y018400D03*
X017147Y014190D03*
X016817Y012800D03*
X013117Y012940D03*
X007377Y013760D03*
X007157Y014760D03*
X010377Y016180D03*
X015247Y006090D03*
X032757Y016180D03*
X033757Y017880D03*
X038757Y018140D03*
X043757Y020500D03*
X048337Y018660D03*
X050207Y017700D03*
X049917Y014990D03*
X051897Y014200D03*
X050317Y013040D03*
X051897Y012000D03*
X047257Y012920D03*
X044717Y015400D03*
X040607Y012210D03*
X037997Y012160D03*
X050157Y008540D03*
D25*
X016097Y015830D02*
X015932Y015830D01*
X015932Y015757D01*
X013917Y015364D02*
X013867Y015480D01*
X013822Y015561D02*
X013822Y015364D01*
X013917Y015364D01*
X013822Y015167D02*
X013822Y014970D01*
X013822Y014576D02*
X013822Y014380D01*
X013822Y013395D02*
X012831Y013395D01*
X012627Y013600D01*
X013817Y015740D02*
X013822Y015740D01*
X013822Y015757D01*
X013822Y015954D01*
X012003Y002524D02*
X009309Y002524D01*
D26*
X008357Y002520D02*
X008344Y002508D01*
X008357Y002520D02*
X008357Y003360D01*
X014467Y009410D01*
X014467Y013990D01*
X013837Y013980D01*
X013822Y013986D01*
X013817Y014180D02*
X013087Y014180D01*
X012927Y014020D01*
X006897Y014020D01*
X006897Y016150D01*
X005537Y017510D01*
X005537Y021900D01*
X006377Y022740D01*
X006957Y022740D01*
X007797Y023580D01*
X006797Y023920D02*
X013077Y023920D01*
X013857Y024000D02*
X040257Y024000D01*
X043757Y020500D01*
X048337Y018660D02*
X016217Y018660D01*
X015857Y019020D01*
X016727Y019280D02*
X017127Y018880D01*
X019747Y018880D01*
X019847Y018990D01*
X020757Y018980D01*
X021177Y018400D02*
X009737Y018400D01*
X009257Y018880D01*
X009637Y018880D02*
X009997Y019240D01*
X011937Y019240D01*
X011977Y019280D01*
X016727Y019280D01*
X016247Y019980D02*
X017247Y020980D01*
X018857Y021000D01*
X019077Y020780D01*
X020557Y020780D01*
X019817Y021040D02*
X019597Y021170D01*
X015627Y021170D01*
X015337Y020880D01*
X014657Y020880D01*
X014657Y020600D01*
X014517Y020460D01*
X014277Y020460D01*
X014237Y020500D01*
X010237Y020500D01*
X010157Y020580D01*
X010377Y019980D02*
X016247Y019980D01*
X014657Y020880D02*
X014657Y022340D01*
X015117Y022340D01*
X015127Y022350D01*
X014597Y022820D02*
X014127Y022350D01*
X014597Y022820D02*
X015337Y022820D01*
X016557Y021600D01*
X018017Y021600D01*
X018097Y021680D01*
X019377Y022600D02*
X018117Y023860D01*
X014637Y023860D01*
X014127Y023350D01*
X013857Y024000D02*
X011457Y021600D01*
X010437Y021340D02*
X010437Y022260D01*
X010437Y021340D02*
X009337Y021340D01*
X009317Y021320D01*
X009297Y021340D01*
X006237Y021340D01*
X005797Y021780D01*
X006957Y022160D02*
X007517Y021600D01*
X010437Y021340D02*
X014117Y021340D01*
X014127Y021350D01*
X014397Y020720D02*
X011697Y020720D01*
X011537Y020880D01*
X010377Y019980D02*
X009897Y019500D01*
X010457Y018880D02*
X010597Y019020D01*
X012097Y019020D01*
X011417Y018140D02*
X038757Y018140D01*
X033757Y017880D02*
X009057Y017880D01*
X008997Y017940D01*
X010377Y016180D02*
X012757Y016180D01*
X013127Y016550D01*
X018977Y016550D01*
X019327Y016200D01*
X032757Y016180D01*
X037997Y012160D02*
X040607Y012210D01*
X039777Y012180D01*
X046517Y012180D01*
X047257Y012920D01*
X048617Y014740D02*
X050317Y013040D01*
X051897Y012000D02*
X053537Y012000D01*
X054257Y012720D01*
X054270Y012726D01*
X054270Y013474D02*
X054257Y013480D01*
X053537Y014200D01*
X051897Y014200D01*
X049917Y014990D02*
X015947Y014980D01*
X015937Y014960D01*
X015932Y014970D01*
X015932Y014773D02*
X015937Y014760D01*
X015957Y014770D01*
X048617Y014740D01*
X017147Y014190D02*
X015937Y014190D01*
X015932Y014183D01*
X015917Y014360D02*
X015932Y014380D01*
X015927Y014390D02*
X015447Y014390D01*
X015177Y014240D01*
X015247Y006090D01*
X014977Y004800D02*
X014987Y014310D01*
X015407Y014570D01*
X015887Y014570D01*
X015917Y014560D01*
X015932Y014576D01*
X015927Y014390D02*
X015917Y014360D01*
X013822Y014183D02*
X013817Y014180D01*
X013817Y013200D02*
X013822Y013198D01*
X013817Y013200D02*
X010017Y013200D01*
X009297Y012480D01*
X009277Y012465D01*
X013117Y012940D02*
X013237Y012820D01*
X013817Y012820D01*
X013822Y012805D01*
X015932Y012805D02*
X015937Y012800D01*
X016817Y012800D01*
X013822Y011033D02*
X013817Y011020D01*
X013037Y011020D01*
X013037Y010090D01*
X013427Y009650D01*
X013437Y008690D01*
X007337Y002540D01*
X007320Y002524D01*
X006457Y023580D02*
X006797Y023920D01*
D27*
X012627Y013600D03*
X012777Y003400D03*
M02*
