%
M48
M72
T01C0.0150
T02C0.0236
T03C0.0354
T04C0.0400
T05C0.0472
T06C0.0787
T07C0.1102
T08C0.1260
%
T01
X15247Y6090
X16817Y12800
X17147Y14190
X13117Y12940
X7377Y13760
X7157Y14760
X10377Y16180
X11677Y17600
X11417Y18140
X12097Y19020
X10457Y18880
X9637Y18880
X9257Y18880
X9897Y19500
X10577Y20240
X10157Y20580
X11537Y20880
X11457Y21600
X10437Y22260
X11237Y22580
X13077Y23920
X8577Y23100
X7797Y23580
X6457Y23580
X6957Y22160
X7477Y22020
X7517Y21600
X5797Y21780
X9317Y21320
X14397Y20720
X14977Y20620
X15857Y19020
X19817Y21040
X20557Y20780
X18097Y21680
X20757Y18980
X21177Y18400
X32757Y16180
X33757Y17880
X38757Y18140
X43757Y20500
X48337Y18660
X50207Y17700
X49917Y14990
X51897Y14200
X50317Y13040
X51897Y12000
X47257Y12920
X44717Y15400
X40607Y12210
X37997Y12160
X50157Y8540
X8997Y17940
T02
X54270Y13474
X54270Y12726
T03
X53627Y5966
X53627Y4234
X12777Y3400
X12627Y13600
T04
X14127Y21350
X15127Y21350
X15127Y22350
X14127Y22350
X14127Y23350
X15127Y23350
X18377Y22600
X19377Y22600
X20377Y22600
X21377Y22600
X22377Y22600
X23377Y22600
X24377Y22600
X25377Y22600
X26377Y22600
X27377Y22600
X10877Y24600
X9877Y24600
X8877Y24600
X7877Y24600
X6877Y24600
X5877Y24600
X13977Y4800
X14977Y4800
X14927Y2950
X13927Y2950
T05
X12663Y9314
X12663Y9314
X5091Y9314
X5091Y16886
T06
X17129Y22600
X28625Y22600
X28625Y2600
X17129Y2600
T07
X3877Y1100
X17127Y2600
X28627Y2600
X29377Y1100
X54877Y1100
X28627Y22600
X29377Y25100
X17127Y22600
X3877Y25100
X54877Y25100
T08
X26215Y19950
X17948Y19950
X17948Y6328
X26215Y6328
M30
